<svg width="159" height="30" viewBox="0 0 159 30" fill="none" xmlns="http://www.w3.org/2000/svg">
  <g clip-path="url(#clip0_1120_407)">
    <path
      d="M8.57143 30V25.7143H4.28571V21.4286H0V8.57143H4.28571V4.28571H8.57143V0H30V4.28571H12.8571V8.57143H8.57143V21.4286H12.8571V25.7143H21.4286V17.1429H17.1429V12.8571H30V30H8.57143Z"
      fill="white" />
    <path
      d="M38.5709 30V25.7143H34.2852V21.4286H38.5709V17.1429H55.7137V12.8572H38.5709V8.57144H59.9994V12.8572H64.2852V30H38.5709ZM42.8566 25.7143H55.7137V21.4286H42.8566V25.7143Z"
      fill="white" />
    <path
      d="M68.5723 30V8.57144H94.2866V12.8572H98.5723V30H90.0008V12.8572H85.7151V30H77.1437V12.8572H72.858V30H68.5723Z"
      fill="white" />
    <path d="M102.857 30V0H132.857V4.28571H111.429V12.8571H128.572V17.1429H111.429V30H102.857Z" fill="white" />
    <path
      d="M132.857 30V25.7143H141.429V12.8571H137.143V8.57143H150V25.7143H158.572V30H132.857ZM141.429 4.28571V0H150V4.28571H141.429Z"
      fill="white" />
  </g>
  <defs>
    <clipPath id="clip0_1120_407">
      <rect width="158.571" height="30" fill="white" />
    </clipPath>
  </defs>
</svg>