<svg width="131" height="30" viewBox="0 0 131 30" fill="none" xmlns="http://www.w3.org/2000/svg">
<g clip-path="url(#clip0_807_2105)">
<path d="M18.8 8.84976C17.45 7.69977 15.4 7.89977 14.3 9.24976L7.85 16.9998C6.85 18.1998 6.85 19.8998 7.85 21.0998L14.3 28.8498C15.45 30.1998 17.45 30.3998 18.8 29.2498C20.15 28.0998 20.35 26.0998 19.2 24.7498L14.45 19.0498L19.2 13.3498C20.35 11.9998 20.15 9.99977 18.8 8.84976ZM3.2 8.09976C1.45 8.09976 0 9.54976 0 11.2998V26.7998C0.05 28.5498 1.5 29.9498 3.25 29.9498C4.95 29.8998 6.35 28.5498 6.4 26.7998V11.2998C6.4 9.54976 4.95 8.09976 3.2 8.09976ZM59.35 14.4998C61.1 14.4498 62.5 12.9998 62.5 11.2498C62.45 9.54976 61.1 8.14977 59.35 8.09976H45.8C44.05 8.09976 42.6 9.54976 42.6 11.2998V17.0998C42.6 18.5498 43.55 19.7998 44.9 20.1998L56.15 23.3998V23.5998H45.8C44.05 23.5498 42.55 24.9498 42.55 26.7498C42.5 28.4998 43.9 29.9498 45.7 29.9998C45.75 29.9998 45.8 29.9998 45.85 29.9998H59.4C61.15 29.9998 62.6 28.5498 62.6 26.7998V20.9998C62.6 19.5498 61.65 18.2998 60.3 17.8998L49 14.6998V14.4998H59.35ZM38.05 8.09976C36.3 8.09976 34.85 9.54976 34.85 11.2998V23.5998H27.7V11.2998C27.75 9.54976 26.35 8.04976 24.55 8.04976C22.8 7.99977 21.3 9.39977 21.3 11.1998C21.3 11.2498 21.3 11.2998 21.3 11.3498V26.8498C21.3 28.5998 22.75 30.0498 24.5 30.0498H38.05C39.8 30.0498 41.25 28.5998 41.25 26.8498V11.3498C41.25 9.54977 39.85 8.09976 38.05 8.09976ZM75.4 9.24976C74.8 8.49976 73.9 8.09976 72.95 8.09976H67.15C65.4 8.09976 63.95 9.54976 63.95 11.2998V26.7998C63.95 28.5498 65.4 29.9998 67.15 29.9998H75.15C76.9 29.9498 78.3 28.4998 78.3 26.7498C78.25 25.0498 76.9 23.6498 75.15 23.5998H70.35V14.4998H71.45L79.45 24.0998V26.7998C79.5 28.5498 80.95 29.9498 82.7 29.9498C84.4 29.8998 85.8 28.5498 85.85 26.7998V22.8998C85.85 22.1498 85.6 21.4498 85.1 20.8498L75.4 9.24976ZM129.6 20.8498L119.9 9.24976C119.3 8.49976 118.4 8.09976 117.45 8.09976H111.65C109.9 8.09976 108.45 9.54976 108.45 11.2998V26.7998C108.45 28.5498 109.9 29.9998 111.65 29.9998H119.65C121.4 29.9498 122.8 28.4998 122.8 26.7498C122.75 25.0498 121.4 23.6498 119.65 23.5998H114.85V14.4998H115.95L123.95 24.0998V26.7998C124 28.5498 125.45 29.9498 127.2 29.9498C128.9 29.8998 130.3 28.5498 130.35 26.7998V22.9498C130.35 22.1998 130.1 21.4498 129.6 20.8498ZM105.25 8.39976C104.1 7.89976 102.8 8.04976 101.85 8.89976L97.15 12.9498L92.45 8.89976C91.1 7.74976 89.1 7.89977 87.95 9.24976C87.45 9.84976 87.2 10.5498 87.2 11.3498V26.8498C87.25 28.5998 88.7 29.9998 90.45 29.9998C92.15 29.9498 93.55 28.5998 93.6 26.8498V18.2498L95.1 19.5498C96.3 20.5998 98.05 20.5998 99.25 19.5498L100.75 18.2498V26.7998C100.75 28.5498 102.2 29.9998 103.95 29.9998C105.7 29.9998 107.15 28.5498 107.15 26.7998V11.2998C107.1 10.0498 106.4 8.89976 105.25 8.39976ZM82.8 6.64976V6.74976C82.8 6.74976 87.2 4.99976 88.05 5.44976L87.55 5.59976C87.6 5.59976 88.45 5.64976 88.45 5.64976C88.5 5.99976 88.7 6.29976 89 6.49976C89.5 6.84976 89.5 6.99976 89.5 6.99976C89.5 6.99976 89.25 7.09976 89.25 7.24976C89.5 7.19976 89.75 7.14976 90 7.14976C90.25 7.14976 90.45 7.19976 90.65 7.24976C90.65 7.24976 90.6 7.09976 90.25 6.99976C89.9 6.89976 89.55 6.49976 89.4 6.29976C89.2 6.04976 89.15 5.64976 89.25 5.34976C89.35 5.04976 89.8 4.84976 90.65 4.39976C91.7 3.84976 91.9 3.44976 92.05 3.14976C92.2 2.84976 92.4 2.24976 92.55 1.94976C92.65 1.69976 92.8 1.44976 93.05 1.24976C93.2 1.14976 93.9 0.849765 93.9 0.849765C93.9 0.849765 93.35 0.399765 93.2 0.249765C93 0.049765 92.7 -0.100235 92.4 -0.150235C92.05 -0.200235 91.65 0.0497649 91.4 0.199765C91.15 0.349765 90.7 0.999765 90.5 1.14976C90.3 1.29976 89.8 1.39976 89 1.89976C88.2 2.39976 85 4.44976 85 4.44976H85.8L82.1 6.34976H82.45L81.9 6.74976C82.25 6.84976 82.55 6.79976 82.8 6.64976Z" fill="#717988"/>
</g>
<defs>
<clipPath id="clip0_807_2105">
<rect width="130.35" height="30" fill="white"/>
</clipPath>
</defs>
</svg>
