<svg width="20" height="20" viewBox="0 0 20 20" fill="none" xmlns="http://www.w3.org/2000/svg">
<g clip-path="url(#clip0_1204_62)">
<path d="M13.599 7.79987C13.199 7.99987 12.999 8.39987 13.099 8.79987C13.699 10.4999 12.899 12.2999 11.199 12.9999C9.49901 13.5999 7.69901 12.7999 6.99901 11.0999C6.29901 9.39987 7.19901 7.69987 8.89901 6.99987C9.59901 6.69987 10.499 6.69987 11.199 6.99987C11.599 7.19987 12.099 6.89987 12.199 6.49987C12.399 6.09987 12.099 5.59987 11.699 5.49987C9.19901 4.49987 6.39901 5.79987 5.39901 8.29987C4.69901 10.0999 5.19901 12.0999 6.49901 13.4999C8.39901 15.3999 11.499 15.3999 13.399 13.4999C14.799 12.0999 15.199 10.0999 14.499 8.29987C14.499 7.89987 13.999 7.69987 13.599 7.79987Z" fill="white"/>
<path d="M15.6008 5.1C16.0426 5.1 16.4008 4.74183 16.4008 4.3C16.4008 3.85817 16.0426 3.5 15.6008 3.5C15.159 3.5 14.8008 3.85817 14.8008 4.3C14.8008 4.74183 15.159 5.1 15.6008 5.1Z" fill="white"/>
<path d="M19.6996 4.29998C19.6996 2.09998 17.8996 0.299976 15.6996 0.199976C11.8996 -0.100024 8.09961 -0.100024 4.29961 0.199976C2.09961 0.199976 0.299609 1.99998 0.199609 4.19998C-0.100391 7.99998 -0.100391 11.8 0.199609 15.6C0.199609 17.8 1.99961 19.6 4.19961 19.7C6.09961 19.9 7.99961 20 9.99961 20C11.9996 20 13.7996 19.9 15.6996 19.7C17.8996 19.7 19.6996 17.9 19.6996 15.7C19.9996 11.9 19.9996 8.09998 19.6996 4.29998ZM18.0996 15.7C18.0996 17 16.9996 18.1 15.6996 18.1H15.5996C11.8996 18.5 8.09961 18.5 4.29961 18.1C2.99961 18.1 1.89961 17 1.89961 15.7C1.89961 15.7 1.89961 15.7 1.89961 15.6C1.59961 11.8 1.59961 8.09998 1.89961 4.29998C1.89961 2.99998 2.99961 1.89998 4.29961 1.89998C4.29961 1.89998 4.29961 1.89998 4.39961 1.89998C6.29961 1.69998 8.09961 1.59998 9.99961 1.59998C11.8996 1.59998 13.7996 1.69998 15.6996 1.89998C16.9996 1.89998 18.0996 2.99998 18.0996 4.29998C18.0996 4.29998 18.0996 4.29998 18.0996 4.39998C18.3996 8.09998 18.3996 11.9 18.0996 15.7Z" fill="white"/>
</g>
<defs>
<clipPath id="clip0_1204_62">
<rect width="19.9" height="20" fill="white"/>
</clipPath>
</defs>
</svg>
