<svg width="74" height="91" viewBox="0 0 74 91" fill="none" xmlns="http://www.w3.org/2000/svg">
<path d="M71.5935 42.4943C70.271 42.4943 69.2424 41.429 69.2424 40.1433C69.2424 38.8575 70.3077 37.7922 71.5935 37.7922C72.9159 37.7922 73.9445 38.8575 73.9445 40.1433C73.9445 41.429 72.9159 42.4943 71.5935 42.4943ZM71.5935 39.3351C71.1526 39.3351 70.822 39.7024 70.822 40.1065C70.822 40.5106 71.1894 40.8779 71.5935 40.8779C72.0343 40.8779 72.3649 40.5106 72.3649 40.1065C72.3649 39.7024 72.0343 39.3351 71.5935 39.3351Z" fill="#F82552"/>
<path d="M67.1118 60.6045C66.671 60.6045 66.2669 60.4208 65.973 60.1269L52.7485 46.2412C52.1241 45.6167 52.1241 44.6249 52.7485 44.0004C53.373 43.3759 54.3649 43.3759 54.9894 44.0004C55.0261 44.0371 55.0261 44.0371 55.0628 44.0739L68.2873 57.9596C68.8751 58.5841 68.8751 59.5759 68.2139 60.2004C67.92 60.4208 67.5159 60.6045 67.1118 60.6045Z" fill="#F82552"/>
<path d="M27.2179 79.9637C26.4465 79.9637 25.7853 79.4126 25.6751 78.6412L22.5894 59.0616C22.4424 58.18 23.0669 57.3718 23.9118 57.2249C24.7934 57.0779 25.6016 57.7024 25.7485 58.5473L28.8343 78.1269C28.9812 78.9718 28.3934 79.78 27.5118 79.9269L27.2179 79.9637Z" fill="#F82552"/>
<path d="M6.16898 71.7351C4.84653 71.7351 3.81796 70.6698 3.81796 69.3841C3.81796 68.0616 4.88327 67.0331 6.16898 67.0331C7.49143 67.0331 8.52 68.0984 8.52 69.3841C8.52 70.6698 7.4547 71.7351 6.16898 71.7351ZM6.16898 68.5759C5.72817 68.5759 5.39755 68.9433 5.39755 69.3473C5.39755 69.7514 5.7649 70.1188 6.16898 70.1188C6.6098 70.1188 6.94041 69.7514 6.94041 69.3473C6.94041 68.9433 6.6098 68.5759 6.16898 68.5759Z" fill="#F82552"/>
<path d="M57.0098 90.58C56.3853 90.58 55.8343 90.2126 55.5771 89.6616L40.2955 57.1514C39.9649 56.3432 40.3322 55.4249 41.1404 55.0943C41.9118 54.7637 42.7567 55.0943 43.1608 55.829L58.4792 88.3392C58.8465 89.1106 58.5159 90.0657 57.7077 90.433C57.4873 90.5433 57.2669 90.58 57.0098 90.58Z" fill="#F82552"/>
<path d="M5.50772 40.5473C1.65058 26.2943 10.0996 11.6004 24.3526 7.74324C35.1526 4.80446 46.6506 8.95548 53.1526 18.1024L50.5812 19.9392C43.0138 9.32283 28.2832 6.82487 17.6669 14.3555C9.62201 20.0861 5.98527 30.1881 8.5567 39.7024L5.50772 40.5473Z" fill="#F82552"/>
<path d="M31.2955 60.3106C23.618 60.3106 16.3078 57.0045 11.2384 51.2371L13.6261 49.1432C22.222 58.9514 37.1363 59.9065 46.9078 51.3106C52.969 45.9841 55.871 37.9759 54.6588 30.0045L57.818 29.5269C60.0588 44.1473 49.9935 57.7759 35.4098 60.0167C34.0506 60.2371 32.7282 60.3106 31.369 60.3106H31.2955Z" fill="#F82552"/>
<path d="M18.2914 12.9963C14.8751 12.9963 12.0833 10.2045 12.0833 6.78815C12.0833 3.37182 14.8751 0.579987 18.2914 0.579987C19.0261 0.579987 19.7241 0.690191 20.3853 0.947334C23.6179 2.12284 25.3077 5.64937 24.1322 8.88203C23.2506 11.3433 20.9363 12.9963 18.2914 12.9963ZM18.2914 3.73917C16.6016 3.73917 15.2424 5.09835 15.2424 6.78815C15.2424 8.47795 16.6016 9.83713 18.2914 9.83713C19.9812 9.83713 21.3404 8.47795 21.3404 6.78815C21.3404 5.50244 20.5322 4.36366 19.3567 3.92284C19.0261 3.81264 18.6588 3.73917 18.2914 3.73917Z" fill="#F82552"/>
<path d="M6.97713 53.0739C6.38937 53.0739 5.87508 52.7433 5.58121 52.229L0.181207 42.2004C-0.222875 41.429 0.0710032 40.4739 0.842432 40.0698C0.952636 39.9963 1.09957 39.9596 1.24651 39.9228C20.422 35.6616 38.4955 27.3963 54.2914 15.7147C54.9894 15.2004 55.9812 15.3473 56.4955 16.0453C56.5322 16.1188 56.569 16.1555 56.6057 16.229L62.0057 26.2575C62.373 26.9555 62.1894 27.8004 61.5649 28.2779C45.4016 40.2167 26.9241 48.6657 7.34447 53.0371C7.19753 53.0739 7.08733 53.1106 6.97713 53.0739ZM3.96488 42.5677L7.82202 49.731C26.1159 45.4698 43.3812 37.6086 58.5894 26.5881L54.769 19.3514C39.5241 30.3351 22.2955 38.233 4.03835 42.5677H3.96488Z" fill="#F82552"/>
<path d="M15.5363 30.629C14.6547 30.629 13.9567 29.931 13.9567 29.0494C13.9567 28.9392 13.9567 28.829 13.9935 28.7188C15.2424 23.1351 19.32 18.6167 24.72 16.8167C25.5282 16.5228 26.4465 16.9637 26.7404 17.7718C27.0343 18.58 26.5935 19.4984 25.7853 19.7922C21.4139 21.2616 18.1077 24.8984 17.1159 29.4167C16.9322 30.1514 16.271 30.6657 15.5363 30.629Z" fill="white"/>
</svg>
