<svg width="266" height="43" viewBox="0 0 266 43" fill="none" xmlns="http://www.w3.org/2000/svg">
<rect y="5" width="5" height="38" fill="white" fill-opacity="0.1"/>
<rect x="9" y="9" width="5" height="34" fill="white" fill-opacity="0.1"/>
<rect x="18" y="14" width="5" height="29" fill="white" fill-opacity="0.1"/>
<rect x="27" width="5" height="43" fill="white" fill-opacity="0.1"/>
<rect x="36" y="24" width="5" height="19" fill="white" fill-opacity="0.1"/>
<rect x="45" y="28" width="5" height="15" fill="white" fill-opacity="0.1"/>
<rect x="54" y="23" width="5" height="20" fill="white" fill-opacity="0.1"/>
<rect x="63" y="22" width="5" height="21" fill="white" fill-opacity="0.1"/>
<rect x="72" y="25" width="5" height="18" fill="white" fill-opacity="0.1"/>
<rect x="81" y="27" width="5" height="16" fill="white" fill-opacity="0.1"/>
<rect x="90" y="21" width="5" height="22" fill="white" fill-opacity="0.1"/>
<rect x="99" y="12" width="5" height="31" fill="white" fill-opacity="0.1"/>
<rect x="108" y="8" width="5" height="35" fill="white" fill-opacity="0.1"/>
<rect x="117" y="2" width="5" height="41" fill="white" fill-opacity="0.1"/>
<rect x="126" y="8" width="5" height="35" fill="white" fill-opacity="0.1"/>
<rect x="135" y="20" width="5" height="23" fill="white" fill-opacity="0.1"/>
<rect x="144" y="8" width="5" height="35" fill="white" fill-opacity="0.1"/>
<rect x="153" y="13" width="5" height="30" fill="white" fill-opacity="0.1"/>
<rect x="162" y="27" width="5" height="16" fill="white" fill-opacity="0.1"/>
<rect x="171" y="6" width="5" height="37" fill="white" fill-opacity="0.1"/>
<rect x="180" y="2" width="5" height="41" fill="white" fill-opacity="0.1"/>
<rect x="189" y="9" width="5" height="34" fill="white" fill-opacity="0.1"/>
<rect x="198" y="18" width="5" height="25" fill="white" fill-opacity="0.1"/>
<rect x="207" y="15" width="5" height="28" fill="white" fill-opacity="0.1"/>
<rect x="216" y="15" width="5" height="28" fill="white" fill-opacity="0.1"/>
<rect x="225" y="25" width="5" height="18" fill="white" fill-opacity="0.1"/>
<rect x="234" y="27" width="5" height="16" fill="white" fill-opacity="0.1"/>
<rect x="243" y="2" width="5" height="41" fill="white" fill-opacity="0.1"/>
<rect x="252" y="22" width="5" height="21" fill="white" fill-opacity="0.1"/>
<rect x="261" y="28" width="5" height="15" fill="white" fill-opacity="0.1"/>
</svg>
