<svg width="77" height="100" viewBox="0 0 77 100" fill="none" xmlns="http://www.w3.org/2000/svg">
<path d="M76.3251 22.6148C75.9718 15.5477 73.8516 9.89399 69.9647 6.36042C65.371 2.12014 58.6573 0 49.47 0H1.41345V19.788H42.4029C48.0566 19.788 50.8834 22.6148 50.8834 28.2686V31.0954C50.8834 36.7491 48.0566 39.576 42.4029 39.576H15.5477V59.364H45.2297C50.8834 59.364 53.7103 62.1908 53.7103 67.8445V71.0247L64.6643 47.7032C63.9576 47.3498 62.8975 46.9965 62.1908 46.9965C63.6043 46.6431 64.6643 45.9364 65.7244 45.2297L76.3251 22.6148Z" fill="url(#paint0_linear_0_1)" fill-opacity="0.5"/>
<path d="M0 78.4452V97.5265C14.1343 98.9399 27.5618 99.6466 39.9293 100L49.1166 79.8586C48.4099 80.212 47.3498 80.212 46.2898 80.212C36.3958 80.5653 20.8481 79.8586 0 78.4452Z" fill="url(#paint1_linear_0_1)" fill-opacity="0.5"/>
<defs>
<linearGradient id="paint0_linear_0_1" x1="-35.0653" y1="1.56282e-07" x2="-16.0822" y2="83.5152" gradientUnits="userSpaceOnUse">
<stop offset="0.510417" stop-color="#6D4AFE"/>
<stop offset="1" stop-color="#090A1A"/>
</linearGradient>
<linearGradient id="paint1_linear_0_1" x1="-23.9177" y1="78.4452" x2="-21.144" y2="104.808" gradientUnits="userSpaceOnUse">
<stop offset="0.510417" stop-color="#6D4AFE"/>
<stop offset="1" stop-color="#090A1A"/>
</linearGradient>
</defs>
</svg>
