<svg width="266" height="44" viewBox="0 0 266 44" fill="none" xmlns="http://www.w3.org/2000/svg">
<rect y="21" width="5" height="23" fill="white" fill-opacity="0.1"/>
<rect x="9" y="26" width="5" height="18" fill="white" fill-opacity="0.1"/>
<rect x="18" y="31" width="5" height="13" fill="white" fill-opacity="0.1"/>
<rect x="27" y="21" width="5" height="23" fill="white" fill-opacity="0.1"/>
<rect x="36" y="11" width="5" height="33" fill="white" fill-opacity="0.1"/>
<rect x="45" y="4" width="5" height="40" fill="white" fill-opacity="0.1"/>
<rect x="54" y="7" width="5" height="37" fill="white" fill-opacity="0.1"/>
<rect x="63" y="16" width="5" height="28" fill="white" fill-opacity="0.1"/>
<rect x="72" y="11" width="5" height="33" fill="white" fill-opacity="0.1"/>
<rect x="81" width="5" height="44" fill="white" fill-opacity="0.1"/>
<rect x="90" y="7" width="5" height="37" fill="white" fill-opacity="0.1"/>
<rect x="99" y="7" width="5" height="37" fill="white" fill-opacity="0.1"/>
<rect x="108" y="9" width="5" height="35" fill="white" fill-opacity="0.1"/>
<rect x="117" y="16" width="5" height="28" fill="white" fill-opacity="0.1"/>
<rect x="126" y="21" width="5" height="23" fill="white" fill-opacity="0.1"/>
<rect x="135" y="11" width="5" height="33" fill="white" fill-opacity="0.1"/>
<rect x="144" y="19" width="5" height="25" fill="white" fill-opacity="0.1"/>
<rect x="153" y="26" width="5" height="18" fill="white" fill-opacity="0.1"/>
<rect x="162" y="21" width="5" height="23" fill="white" fill-opacity="0.1"/>
<rect x="171" y="21" width="5" height="23" fill="white" fill-opacity="0.1"/>
<rect x="180" y="26" width="5" height="18" fill="white" fill-opacity="0.1"/>
<rect x="189" y="14" width="5" height="30" fill="white" fill-opacity="0.1"/>
<rect x="198" y="7" width="5" height="37" fill="white" fill-opacity="0.1"/>
<rect x="207" y="7" width="5" height="37" fill="white" fill-opacity="0.1"/>
<rect x="216" y="16" width="5" height="28" fill="white" fill-opacity="0.1"/>
<rect x="225" y="19" width="5" height="25" fill="white" fill-opacity="0.1"/>
<rect x="234" y="23" width="5" height="21" fill="white" fill-opacity="0.1"/>
<rect x="243" y="19" width="5" height="25" fill="white" fill-opacity="0.1"/>
<rect x="252" y="14" width="5" height="30" fill="white" fill-opacity="0.1"/>
<rect x="261" y="11" width="5" height="33" fill="white" fill-opacity="0.1"/>
</svg>
