<svg width="252" height="110" viewBox="0 0 252 110" fill="none" xmlns="http://www.w3.org/2000/svg">
  <path
    d="M159.431 0L210.448 110H234.662L183.544 0H159.431ZM151.658 0L202.776 110H178.562L127.544 0H151.658ZM119.772 0L170.89 110H146.676L95.6584 0H119.772ZM87.8861 0L139.004 110H114.79L63.7722 0H87.8861ZM56 0L107.117 110H82.9039L31.8861 0H56ZM24.1139 0L75.2313 110H51.0178L1.27291e-07 0H24.1139ZM247.317 0L252 10V62.1L223.203 0H247.317ZM191.317 0H215.431L252 78.6V110H242.335L191.317 0Z"
    fill="url(#paint0_linear_1120_436)" fill-opacity="0.15" />
  <defs>
    <linearGradient id="paint0_linear_1120_436" x1="252" y1="55" x2="0.0804835" y2="55" gradientUnits="userSpaceOnUse">
      <stop stop-color="#6D4AFE" />
      <stop offset="1" stop-color="#6D4AFE" stop-opacity="0" />
    </linearGradient>
  </defs>
</svg>