<svg width="18" height="18" viewBox="0 0 18 18" fill="none" xmlns="http://www.w3.org/2000/svg">
<g clip-path="url(#clip0_1120_419)">
<path d="M14.7275 0.818176H2.45472C1.55472 0.818176 0.818359 1.55454 0.818359 2.45454C0.818359 3.35454 1.55472 4.0909 2.45472 4.0909H9.81836" stroke="black" stroke-width="2" stroke-miterlimit="10" stroke-linecap="round" stroke-linejoin="round"/>
<path d="M16.3636 3.27274H1.63636L0 2.45456V15.5455C0 16.9364 1.06364 18 2.45455 18H16.3636C17.2636 18 18 17.2637 18 16.3637V4.9091C18 4.0091 17.2636 3.27274 16.3636 3.27274ZM14.7273 12.2727C13.8273 12.2727 13.0909 11.5364 13.0909 10.6364C13.0909 9.73638 13.8273 9.00001 14.7273 9.00001C15.6273 9.00001 16.3636 9.73638 16.3636 10.6364C16.3636 11.5364 15.6273 12.2727 14.7273 12.2727Z" fill="black"/>
</g>
<defs>
<clipPath id="clip0_1120_419">
<rect width="18" height="18" fill="white"/>
</clipPath>
</defs>
</svg>
