<svg width="266" height="41" viewBox="0 0 266 41" fill="none" xmlns="http://www.w3.org/2000/svg">
<rect y="26" width="5" height="15" fill="white" fill-opacity="0.1"/>
<rect x="9" y="26" width="5" height="15" fill="white" fill-opacity="0.1"/>
<rect x="18" y="11" width="5" height="30" fill="white" fill-opacity="0.1"/>
<rect x="27" y="4" width="5" height="37" fill="white" fill-opacity="0.1"/>
<rect x="36" y="23" width="5" height="18" fill="white" fill-opacity="0.1"/>
<rect x="45" y="20" width="5" height="21" fill="white" fill-opacity="0.1"/>
<rect x="54" y="23" width="5" height="18" fill="white" fill-opacity="0.1"/>
<rect x="63" y="2" width="5" height="39" fill="white" fill-opacity="0.1"/>
<rect x="72" y="4" width="5" height="37" fill="white" fill-opacity="0.1"/>
<rect x="81" y="13" width="5" height="28" fill="white" fill-opacity="0.1"/>
<rect x="90" y="11" width="5" height="30" fill="white" fill-opacity="0.1"/>
<rect x="99" y="4" width="5" height="37" fill="white" fill-opacity="0.1"/>
<rect x="108" y="6" width="5" height="35" fill="white" fill-opacity="0.1"/>
<rect x="117" y="13" width="5" height="28" fill="white" fill-opacity="0.1"/>
<rect x="126" y="18" width="5" height="23" fill="white" fill-opacity="0.1"/>
<rect x="135" y="26" width="5" height="15" fill="white" fill-opacity="0.1"/>
<rect x="144" y="8" width="5" height="33" fill="white" fill-opacity="0.1"/>
<rect x="153" y="4" width="5" height="37" fill="white" fill-opacity="0.1"/>
<rect x="162" y="2" width="5" height="39" fill="white" fill-opacity="0.1"/>
<rect x="171" width="5" height="41" fill="white" fill-opacity="0.1"/>
<rect x="180" y="11" width="5" height="30" fill="white" fill-opacity="0.1"/>
<rect x="189" y="18" width="5" height="23" fill="white" fill-opacity="0.1"/>
<rect x="198" y="23" width="5" height="18" fill="white" fill-opacity="0.1"/>
<rect x="207" y="23" width="5" height="18" fill="white" fill-opacity="0.1"/>
<rect x="216" y="4" width="5" height="37" fill="white" fill-opacity="0.1"/>
<rect x="225" y="2" width="5" height="39" fill="white" fill-opacity="0.1"/>
<rect x="234" y="23" width="5" height="18" fill="white" fill-opacity="0.1"/>
<rect x="243" y="8" width="5" height="33" fill="white" fill-opacity="0.1"/>
<rect x="252" y="2" width="5" height="39" fill="white" fill-opacity="0.1"/>
<rect x="261" width="5" height="41" fill="white" fill-opacity="0.1"/>
</svg>
