<svg width="20" height="20" viewBox="0 0 20 20" fill="none" xmlns="http://www.w3.org/2000/svg">
<g clip-path="url(#clip0_1204_52)">
<path d="M2.7 0C1.2 0 0 1.2 0 2.7C0 4.2 1.2 5.4 2.7 5.4C4.2 5.4 5.4 4.2 5.4 2.7C5.4 1.2 4.2 0 2.7 0ZM2.7 3.8C2.1 3.8 1.5 3.3 1.5 2.6C1.5 1.9 2 1.4 2.7 1.4C3.4 1.4 3.9 1.9 3.9 2.6C3.9 3.3 3.3 3.8 2.7 3.8Z" fill="white"/>
<path d="M4.6 6.2002H0.8C0.3 6.2002 0 6.5002 0 6.9002C0 7.3002 0.3 7.7002 0.8 7.7002H3.9V18.5002H1.5V10.0002C1.5 9.6002 1.2 9.2002 0.7 9.2002C0.2 9.2002 0 9.6002 0 10.0002V19.2002C0 19.7002 0.3 20.0002 0.8 20.0002H4.6C5 20.0002 5.4 19.7002 5.4 19.2002V6.9002C5.4 6.5002 5 6.2002 4.6 6.2002Z" fill="white"/>
<path d="M18.6996 7.39998C17.7996 6.49998 16.5996 6.09998 15.3996 6.09998H14.5996C13.4996 6.09998 12.4996 6.29998 11.4996 6.79998C11.4996 6.39998 11.0996 6.09998 10.6996 6.09998H6.89961C6.49961 6.09998 6.09961 6.39998 6.09961 6.89998V19.2C6.09961 19.6 6.39961 20 6.89961 20H10.6996C11.0996 20 11.4996 19.7 11.4996 19.2V12.3C11.4996 11.5 12.1996 10.8 12.9996 10.8C13.7996 10.8 14.4996 11.5 14.4996 12.3V19.2C14.4996 19.6 14.7996 20 15.2996 20H19.0996C19.4996 20 19.8996 19.7 19.8996 19.2V10.7C19.9996 9.49998 19.5996 8.29998 18.6996 7.39998ZM18.4996 18.5H16.1996V12.3C16.1996 10.6 14.7996 9.19998 13.0996 9.19998C11.3996 9.19998 9.99961 10.6 9.99961 12.3V18.5H7.69961V7.69998H9.99961V8.49998C9.99961 8.79998 10.1996 9.09998 10.4996 9.19998C10.7996 9.29998 11.0996 9.29998 11.2996 8.99998C11.9996 8.19998 12.5996 7.69998 14.5996 7.69998H15.3996C16.1996 7.69998 16.9996 7.99998 17.5996 8.49998C18.1996 9.09998 18.4996 9.89998 18.3996 10.7V18.5H18.4996Z" fill="white"/>
</g>
<defs>
<clipPath id="clip0_1204_52">
<rect width="20" height="20" fill="white"/>
</clipPath>
</defs>
</svg>
